<svg width="39" height="39" viewBox="0 0 39 39" fill="none" xmlns="http://www.w3.org/2000/svg">
<path id="Vector" d="M34.4796 0.775594C35.5137 -0.258518 37.1904 -0.258544 38.2245 0.775594C39.2585 1.80971 39.2585 3.48636 38.2245 4.52047L23.2448 19.5002L38.2245 34.4796C39.2585 35.5137 39.2585 37.1904 38.2245 38.2245C37.1904 39.2585 35.5137 39.2585 34.4796 38.2245L19.4999 23.245L4.52051 38.2245C4.50433 38.2406 4.48802 38.2565 4.47155 38.2721C3.43413 39.2583 1.79356 39.2424 0.775604 38.2245C1.98083e-05 37.4488 -0.193897 36.3118 0.193908 35.3556C0.323159 35.0367 0.517076 34.738 0.775604 34.4796L15.7551 19.5002L0.775604 4.52061C-0.258535 3.4865 -0.258535 1.80984 0.775604 0.775725C1.80972 -0.258413 3.48637 -0.258413 4.52049 0.775725L19.4999 15.7551L34.4796 0.775594Z" fill="#FF0000"/>
</svg>
