<svg width="26" height="28" viewBox="0 0 26 28" fill="none" xmlns="http://www.w3.org/2000/svg">
<path d="M17.2601 24.8052H1.16089C0.917756 24.8048 0.684675 24.7007 0.512751 24.5155C0.340826 24.3304 0.244088 24.0793 0.243744 23.8175V3.49091C0.243744 2.94701 0.655194 2.50391 1.16089 2.50391H23.7146C24.2196 2.50391 24.6311 2.94701 24.6311 3.49091V20.391C24.6311 20.4838 24.5969 20.5729 24.5359 20.6385C24.475 20.7041 24.3923 20.741 24.3061 20.741C24.2199 20.741 24.1372 20.7041 24.0763 20.6385C24.0153 20.5729 23.9811 20.4838 23.9811 20.391V3.49091C23.9811 3.41479 23.953 3.34179 23.903 3.28797C23.8531 3.23414 23.7853 3.20391 23.7146 3.20391H1.16089C1.12584 3.20381 1.09112 3.21117 1.05871 3.22555C1.0263 3.23993 0.996845 3.26106 0.97203 3.28772C0.947214 3.31438 0.927526 3.34605 0.914092 3.38091C0.900659 3.41578 0.893744 3.45316 0.893744 3.49091V23.8175C0.893744 23.9757 1.01334 24.1052 1.16089 24.1052H17.2601C17.3463 24.1052 17.429 24.1421 17.4899 24.2077C17.5509 24.2734 17.5851 24.3624 17.5851 24.4552C17.5851 24.548 17.5509 24.6371 17.4899 24.7027C17.429 24.7683 17.3463 24.8052 17.2601 24.8052Z" fill="white"/>
<path d="M11.5239 24.8052C11.4377 24.8052 11.355 24.7683 11.294 24.7027C11.2331 24.6371 11.1989 24.548 11.1989 24.4552V2.85391C11.1989 2.76108 11.2331 2.67206 11.294 2.60642C11.355 2.54078 11.4377 2.50391 11.5239 2.50391C11.61 2.50391 11.6927 2.54078 11.7537 2.60642C11.8146 2.67206 11.8489 2.76108 11.8489 2.85391V24.4552C11.8489 24.548 11.8146 24.6371 11.7537 24.7027C11.6927 24.7683 11.61 24.8052 11.5239 24.8052ZM5.3105 24.8052C5.22431 24.8052 5.14164 24.7683 5.08069 24.7027C5.01975 24.6371 4.9855 24.548 4.9855 24.4552V2.85391C4.9855 2.76108 5.01975 2.67206 5.08069 2.60642C5.14164 2.54078 5.22431 2.50391 5.3105 2.50391C5.3967 2.50391 5.47936 2.54078 5.54031 2.60642C5.60126 2.67206 5.6355 2.76108 5.6355 2.85391V24.4552C5.6355 24.6491 5.49055 24.8052 5.3105 24.8052ZM17.2601 19.684C17.1739 19.684 17.0912 19.6471 17.0303 19.5815C16.9693 19.5159 16.9351 19.4268 16.9351 19.334V2.85391C16.9351 2.76108 16.9693 2.67206 17.0303 2.60642C17.0912 2.54078 17.1739 2.50391 17.2601 2.50391C17.3463 2.50391 17.429 2.54078 17.4899 2.60642C17.5509 2.67206 17.5851 2.76108 17.5851 2.85391V19.334C17.5851 19.4268 17.5509 19.5159 17.4899 19.5815C17.429 19.6471 17.3463 19.684 17.2601 19.684Z" fill="white"/>
<path d="M24.2528 6.58281H0.772194C0.685998 6.58281 0.603334 6.54594 0.542384 6.4803C0.481435 6.41466 0.447194 6.32564 0.447194 6.23281C0.447194 6.13999 0.481435 6.05096 0.542384 5.98532C0.603334 5.91969 0.685998 5.88281 0.772194 5.88281H24.2534C24.2961 5.88286 24.3384 5.89196 24.3778 5.90959C24.4172 5.92722 24.453 5.95304 24.4832 5.98557C24.5133 6.01811 24.5372 6.05672 24.5535 6.0992C24.5698 6.14168 24.5782 6.1872 24.5781 6.23316C24.5781 6.27912 24.5696 6.32463 24.5533 6.36707C24.5369 6.40952 24.5129 6.44808 24.4827 6.48055C24.4525 6.51302 24.4166 6.53876 24.3772 6.5563C24.3377 6.57385 24.2955 6.58286 24.2528 6.58281ZM24.0259 10.2872H0.772194C0.685998 10.2872 0.603334 10.2503 0.542384 10.1847C0.481435 10.1191 0.447194 10.03 0.447194 9.93721C0.447194 9.84439 0.481435 9.75536 0.542384 9.68972C0.603334 9.62409 0.685998 9.58721 0.772194 9.58721H24.0259C24.1121 9.58721 24.1948 9.62409 24.2558 9.68972C24.3167 9.75536 24.3509 9.84439 24.3509 9.93721C24.3509 10.03 24.3167 10.1191 24.2558 10.1847C24.1948 10.2503 24.1121 10.2872 24.0259 10.2872ZM17.2601 13.9923H0.772194C0.685998 13.9923 0.603334 13.9554 0.542384 13.8898C0.481435 13.8242 0.447194 13.7351 0.447194 13.6423C0.447194 13.5495 0.481435 13.4605 0.542384 13.3948C0.603334 13.3292 0.685998 13.2923 0.772194 13.2923H17.2601C17.3463 13.2923 17.429 13.3292 17.4899 13.3948C17.5509 13.4605 17.5851 13.5495 17.5851 13.6423C17.5851 13.7351 17.5509 13.8242 17.4899 13.8898C17.429 13.9554 17.3463 13.9923 17.2601 13.9923ZM16.9578 17.6764H0.568744C0.482549 17.6764 0.399883 17.6395 0.338934 17.5739C0.277985 17.5083 0.243744 17.4192 0.243744 17.3264C0.243744 17.2336 0.277985 17.1446 0.338934 17.0789C0.399883 17.0133 0.482549 16.9764 0.568744 16.9764H16.9578C17.044 16.9764 17.1267 17.0133 17.1877 17.0789C17.2486 17.1446 17.2828 17.2336 17.2828 17.3264C17.2828 17.4192 17.2486 17.5083 17.1877 17.5739C17.1267 17.6395 17.044 17.6764 16.9578 17.6764ZM13.949 21.3556H0.568744C0.482549 21.3556 0.399883 21.3187 0.338934 21.2531C0.277985 21.1875 0.243744 21.0984 0.243744 21.0056C0.243744 20.9128 0.277985 20.8238 0.338934 20.7581C0.399883 20.6925 0.482549 20.6556 0.568744 20.6556H13.949C14.0352 20.6556 14.1179 20.6925 14.1788 20.7581C14.2398 20.8238 14.274 20.9128 14.274 21.0056C14.274 21.0984 14.2398 21.1875 14.1788 21.2531C14.1179 21.3187 14.0352 21.3556 13.949 21.3556ZM20.3976 26.3179C20.3114 26.3178 20.2288 26.2811 20.1675 26.2157L15.1619 20.8243C15.1027 20.7583 15.0699 20.6699 15.0707 20.5781C15.0714 20.4864 15.1056 20.3986 15.1659 20.3337C15.2261 20.2688 15.3076 20.232 15.3928 20.2312C15.4781 20.2304 15.5601 20.2657 15.6214 20.3294L20.3976 25.4737L25.1608 20.3434C25.2221 20.2797 25.3042 20.2444 25.3894 20.2452C25.4747 20.246 25.5562 20.2828 25.6164 20.3477C25.6767 20.4126 25.7109 20.5004 25.7116 20.5921C25.7124 20.6839 25.6796 20.7723 25.6204 20.8383L20.6271 26.2164C20.566 26.2814 20.4835 26.3179 20.3976 26.3179Z" fill="white"/>
<path d="M20.3977 26.318C20.3115 26.318 20.2288 26.2811 20.1678 26.2155C20.1069 26.1498 20.0727 26.0608 20.0727 25.968V11.5396C20.0727 11.4468 20.1069 11.3577 20.1678 11.2921C20.2288 11.2265 20.3115 11.1896 20.3977 11.1896C20.4839 11.1896 20.5665 11.2265 20.6275 11.2921C20.6884 11.3577 20.7227 11.4468 20.7227 11.5396V25.9673C20.7227 26.0133 20.7144 26.0589 20.6981 26.1014C20.6818 26.144 20.6579 26.1827 20.6277 26.2152C20.5975 26.2478 20.5617 26.2737 20.5222 26.2913C20.4827 26.3089 20.4404 26.318 20.3977 26.318ZM0.638306 3.00659H5.22406V6.09079H0.638306V3.00659Z" fill="white"/>
</svg>
