<svg width="27" height="29" viewBox="0 0 27 29" fill="none" xmlns="http://www.w3.org/2000/svg">
<path d="M24.947 6.40174V3.70774C24.947 3.36523 24.8128 3.03674 24.5739 2.79454C24.3349 2.55234 24.0109 2.41628 23.673 2.41628H18.2582M18.8952 26.3084H23.673C24.0109 26.3084 24.3349 26.1723 24.5739 25.9301C24.8128 25.6879 24.947 25.3594 24.947 25.0169V21.0883M1.37672 22.3797V25.0169C1.37672 25.3594 1.51095 25.6879 1.74988 25.9301C1.98882 26.1723 2.31288 26.3084 2.65079 26.3084H8.82239M8.82239 2.41628H2.65079C2.31288 2.41628 1.98882 2.55234 1.74988 2.79454C1.51095 3.03674 1.37672 3.36523 1.37672 3.70774V7.04747M19.6921 11.2486L11.0794 6.13505M20.8101 14.7446L9.83209 8.31956M19.5462 16.9743L8.56885 10.5486M25.4426 8.7748L12.4178 1.15129C12.1619 1.00155 11.8578 0.96097 11.5724 1.03847C11.287 1.11597 11.0437 1.30521 10.8959 1.56456L1.1493 18.6816C1.00154 18.9411 0.961491 19.2494 1.03794 19.5388C1.1144 19.8282 1.3011 20.075 1.557 20.2249L14.5812 27.8484C14.7079 27.9227 14.8478 27.9709 14.9929 27.9903C15.1381 28.0097 15.2855 27.9999 15.4269 27.9616C15.5683 27.9232 15.7009 27.8569 15.817 27.7666C15.9331 27.6763 16.0305 27.5637 16.1037 27.4352L25.851 10.3175C25.9985 10.058 26.0385 9.74986 25.962 9.46062C25.8856 9.17137 25.6984 8.92471 25.4426 8.7748Z" stroke="white" stroke-linecap="round" stroke-linejoin="round"/>
</svg>
