<svg width="661" height="661" viewBox="0 0 661 661" fill="none" xmlns="http://www.w3.org/2000/svg">
<path d="M330.5 661C513.03 661 661 513.03 661 330.5C661 147.97 513.03 0 330.5 0C147.97 0 0 147.97 0 330.5C0 513.03 147.97 661 330.5 661Z" fill="#3E4347"/>
<path d="M47.3716 176.267L17.6266 146.522C-5.5084 123.387 -5.5084 85.9305 17.6266 63.8971L63.8966 17.6271C87.0316 -5.50787 124.488 -5.50787 146.522 17.6271L176.267 47.3721L142.115 81.5238L112.37 51.7788C109.065 48.4738 102.455 48.4738 98.0483 51.7788L51.7783 98.0488C48.4733 101.354 48.4733 107.964 51.7783 112.37L81.5233 142.115L47.3716 176.267ZM613.628 484.734L643.373 514.479C666.508 537.614 666.508 575.07 643.373 597.104L597.103 643.374C573.968 666.509 536.512 666.509 514.478 643.374L484.733 613.629L518.885 579.477L548.63 609.222C551.935 612.527 558.545 612.527 562.952 609.222L609.222 562.952C612.527 559.647 612.527 553.037 609.222 548.63L579.477 518.885L613.628 484.734Z" fill="#3E4347"/>
<path d="M330.5 588.29C472.874 588.29 588.29 472.873 588.29 330.5C588.29 188.126 472.874 72.7097 330.5 72.7097C188.127 72.7097 72.7101 188.126 72.7101 330.5C72.7101 472.873 188.127 588.29 330.5 588.29Z" fill="#F2B200"/>
<path d="M414.227 103.557C359.143 74.9132 272.112 129.997 282.027 176.267C291.942 222.537 405.413 255.587 436.26 320.585C467.107 385.583 481.428 406.515 536.512 362.448C590.493 317.28 615.832 210.418 414.227 103.557Z" fill="#B47D56"/>
<path d="M405.413 129.996C442.87 129.996 382.278 150.928 347.025 181.775C329.398 197.198 337.11 129.996 405.413 129.996ZM485.835 183.978C523.292 183.978 462.7 204.91 426.345 235.756C409.82 250.078 417.532 183.978 485.835 183.978ZM535.41 266.603C572.867 266.603 512.275 287.535 475.92 318.381C459.395 332.703 468.208 266.603 535.41 266.603Z" fill="#89664C"/>
<path d="M95.845 396.6C74.9134 343.72 144.318 278.722 189.487 295.247C235.757 311.772 252.282 415.329 312.873 453.887C373.465 491.344 393.295 507.868 340.415 547.528C286.433 587.188 174.063 589.392 95.845 396.6Z" fill="#B47D56"/>
<path d="M125.59 410.922C120.082 442.87 149.827 394.397 187.283 369.059C204.91 356.94 135.505 352.534 125.59 410.922ZM163.047 478.124C157.538 510.072 187.283 461.599 224.74 436.26C242.367 424.142 172.962 419.735 163.047 478.124ZM229.147 527.699C223.638 559.647 253.383 511.174 290.84 485.835C308.467 473.717 240.163 468.209 229.147 527.699Z" fill="#89664C"/>
<path d="M259.993 121.183C235.757 98.0481 235.757 98.0481 165.25 171.86C126.692 212.621 106.862 255.586 120.082 267.705C144.318 290.84 144.318 290.84 213.723 217.028C253.383 177.368 273.213 134.403 259.993 121.183ZM545.325 420.836C525.495 394.396 525.495 394.396 445.073 451.683C399.905 483.631 373.465 521.088 383.38 535.41C403.21 561.85 403.21 561.85 483.632 504.563C528.8 472.615 556.342 435.158 545.325 420.836ZM403.21 343.72C417.532 310.67 417.532 310.67 320.585 265.501C266.603 240.163 217.028 234.655 209.317 252.281C194.995 285.331 194.995 285.331 291.942 330.5C344.822 355.838 394.397 361.346 403.21 343.72Z" fill="#699635"/>
<path d="M457.192 394.397C459.395 370.16 439.565 382.278 403.21 381.177C366.855 378.973 376.77 407.617 378.973 430.752C380.075 453.887 394.397 435.158 447.277 436.26C467.107 437.362 453.887 418.633 457.192 394.397Z" fill="#ED4C5C"/>
<path d="M307.365 353.635C279.823 343.72 288.637 362.448 274.315 388.888C259.993 415.328 297.45 416.43 324.992 423.04C352.533 429.65 334.907 413.125 353.635 374.567C361.347 360.245 334.907 363.55 307.365 353.635Z" fill="#FFCE31"/>
<path d="M247.875 186.181C220.333 176.266 229.147 194.995 214.825 221.435C200.503 247.875 237.96 248.976 265.502 255.586C293.043 262.196 275.417 245.671 294.145 207.113C301.857 192.791 275.417 196.096 247.875 186.181Z" fill="#ED4C5C"/>
<path d="M132.2 266.604C104.658 256.689 113.472 275.417 99.15 301.857C84.8284 328.297 122.285 329.399 149.827 336.009C177.368 342.619 159.742 326.094 178.47 287.535C186.182 272.112 159.742 275.417 132.2 266.604Z" fill="#FFCE31"/>
</svg>
